<svg height="512pt" viewBox="-11 0 512 512" width="512pt" xmlns="http://www.w3.org/2000/svg"><path d="m490 267c0 135.308594-109.691406 245-245 245s-245-109.691406-245-245 109.691406-245 245-245 245 109.691406 245 245zm0 0" fill="#ea2a3d"/><path d="m376 83v-78c0-2.75-2.25-5-5-5h-12c-2.75 0-5 2.25-5 5v78zm0 0" fill="#2e4c89"/><path d="m369 0h-10c-2.75 0-5 2.25-5 5v78h10v-78c0-2.75 2.25-5 5-5zm0 0" fill="#293d7c"/><path d="m465.507812 117.945312-17.105468-31.550781c-1.308594-2.414062-4.632813-4.394531-7.382813-4.394531h-152.039062c-2.75 0-6.074219 1.980469-7.382813 4.394531l-17.105468 31.550781zm0 0" fill="#ffe2b8"/><path d="m320.472656 82h-31.492187c-2.75 0-6.074219 1.980469-7.382813 4.394531l-17.105468 31.550781h31.492187l17.105469-31.550781c1.308594-2.414062 4.632812-4.394531 7.382812-4.394531zm0 0" fill="#ffc987"/><path d="m286.890625 154.894531c26.410156 24.785157 42.839844 58.214844 46.253906 94.128907.203125 2.121093-.503906 4.238281-1.933593 5.8125-1.394532 1.527343-3.382813 2.429687-5.460938 2.46875l-.953125.019531-.027344.953125c-.191406 7.308594-6.082031 12.609375-14.007812 12.609375v2h3.144531c6 0 10.882812 4.882812 10.882812 10.882812v16.125c0 3.457031-1.675781 6.742188-4.484374 8.789063l-.34375.25-.058594.417968c-.398438 2.824219-1.3125 5.511719-2.722656 7.988282l-.132813.230468v28.117188h8.578125c4.164062 0 7.554688 3.390625 7.554688 7.554688v14.300781c0 5.101562-.726563 10.191406-2.15625 15.121093l-.371094 1.28125h35.511718c1.191407 0 2.316407.632813 2.9375 1.65625.617188 1.019532.660157 2.3125.105469 3.371094l-20.367187 38.972656h80.878906c6.582031-7.542968 12.707031-15.496093 18.335938-23.8125l18.496093-260.1875h-192.757812c4.542969 3.378907 8.917969 7.027344 13.097656 10.949219zm0 0" fill="#28a5a5"/><path d="m317.046875 345.6875h8.574219c4.167968 0 7.558594 3.390625 7.558594 7.554688v14.0625l126.480468-126.484376 4.222656-59.375-146.835937 146.835938zm0 0" fill="#fff"/><path d="m275.113281 144.945312h200.886719c2.75 0 5-2.25 5-5v-18c0-2.75-2.25-5-5-5h-222c-2.75 0-5 2.25-5 5v7.074219c9.183594 4.367188 17.933594 9.695313 26.113281 15.925781zm0 0" fill="#ffdd8d"/><path d="m279 121.945312c0-2.75 2.25-5 5-5h-30c-2.75 0-5 2.25-5 5v7.074219c9.183594 4.367188 17.933594 9.695313 26.113281 15.925781h3.886719zm0 0" fill="#edbe5f"/><path d="m131.09375 326.738281c-1.015625-.46875-2-1.011719-2.9375-1.632812-2.148438-1.414063-4.644531-2.164063-7.214844-2.164063-2.570312 0-5.0625.75-7.210937 2.164063-3.671875 2.421875-7.960938 3.703125-12.410157 3.703125-4.445312 0-8.734374-1.28125-12.40625-3.703125-2.144531-1.414063-4.640624-2.164063-7.210937-2.164063s-5.0625.75-7.210937 2.164063c-3.671876 2.421875-7.960938 3.703125-12.410157 3.703125-8.808593 0-16.589843-5.183594-20.296875-12.71875v29.597656h89.308594zm0 0" fill="#b7092b"/><path d="m62.09375 345.6875v-16.878906c-.003906 0-.007812 0-.011719 0-8.8125 0-16.589843-5.183594-20.300781-12.71875v29.597656zm0 0" fill="#8e0728"/><path d="m221.332031 328.679688c-.757812.074218-1.523437.128906-2.296875.128906-4.445312 0-8.734375-1.28125-12.402344-3.703125-2.148437-1.414063-4.644531-2.164063-7.214843-2.164063-2.570313 0-5.066407.75-7.210938 2.164063-3.671875 2.421875-7.960937 3.703125-12.40625 3.703125-4.449219 0-8.738281-1.28125-12.40625-3.699219-2.152343-1.417969-4.648437-2.167969-7.214843-2.167969-2.570313 0-5.066407.75-7.210938 2.164063-3.671875 2.421875-7.964844 3.703125-12.410156 3.703125-3.6875 0-7.257813-.894532-10.464844-2.574219v19.453125h91.238281zm0 0" fill="#ea2a3d"/><path d="m318.046875 345.6875v-30.089844c-3.609375 7.800782-11.53125 13.210938-20.53125 13.210938-4.449219 0-8.738281-1.28125-12.40625-3.703125-2.148437-1.414063-4.644531-2.164063-7.214844-2.164063-2.570312 0-5.0625.75-7.210937 2.164063-3.671875 2.421875-7.960938 3.703125-12.40625 3.703125-4.449219 0-8.738282-1.28125-12.40625-3.703125-2.148438-1.414063-4.644532-2.164063-7.214844-2.164063s-5.0625.75-7.210938 2.164063c-3.3125 2.1875-7.128906 3.429687-11.109374 3.65625v16.925781zm0 0" fill="#fe3745"/><path d="m313.902344 310.777344h-268.210938c-2.730468 0-5.226562-1.019532-7.140625-2.6875.96875 12.136718 11.148438 21.71875 23.53125 21.71875 4.640625 0 9.121094-1.335938 12.957031-3.867188 1.984376-1.308594 4.285157-2 6.660157-2s4.679687.691406 6.664062 2c3.832031 2.53125 8.3125 3.867188 12.957031 3.867188 4.644532 0 9.121094-1.335938 12.957032-3.867188 1.984375-1.304687 4.289062-1.996094 6.660156-1.996094 2.375 0 4.679688.6875 6.664062 2 3.832032 2.527344 8.3125 3.863282 12.957032 3.863282 4.640625 0 9.121094-1.335938 12.957031-3.867188 1.984375-1.304687 4.289063-1.996094 6.660156-1.996094 2.375 0 4.679688.691407 6.664063 2 3.832031 2.527344 8.3125 3.863282 12.957031 3.863282s9.125-1.335938 12.957031-3.863282c1.984375-1.308593 4.289063-2 6.660156-2 2.375 0 4.679688.691407 6.664063 2 3.832031 2.527344 8.3125 3.863282 12.957031 3.863282 4.644532 0 9.121094-1.335938 12.957032-3.863282 1.984374-1.308593 4.285156-2 6.660156-2s4.679687.691407 6.664062 2c3.832032 2.527344 8.3125 3.867188 12.957032 3.867188 4.640624 0 9.121093-1.335938 12.957031-3.867188 1.984375-1.308593 4.289062-2 6.660156-2 2.375 0 4.679687.691407 6.664063 2 3.832031 2.53125 8.3125 3.867188 12.957031 3.867188 12.382812 0 22.558593-9.582031 23.527343-21.71875-1.90625 1.664062-4.402343 2.683594-7.136718 2.683594zm0 0" fill="#60d882"/><path d="m59.804688 310.777344h-14.113282c-2.730468 0-5.226562-1.019532-7.140625-2.6875.96875 12.136718 11.148438 21.71875 23.53125 21.71875 3.660157 0 7.21875-.84375 10.441407-2.4375-6.480469-3.207032-11.277344-9.304688-12.71875-16.59375zm0 0" fill="#37c47a"/><path d="m313.902344 271.886719h-23.019532c-.539062.234375-1.0625.511719-1.5625.828125l-40.421874 25.691406c-2.21875 1.410156-5.324219 2.21875-8.523438 2.21875s-6.304688-.808594-8.527344-2.21875l-40.417968-25.691406c-.503907-.316406-1.027344-.59375-1.5625-.828125h-144.175782c-6.5625 0-11.882812 5.316406-11.882812 11.882812v16.125c0 6.5625 5.320312 11.882813 11.882812 11.882813h268.210938c6.566406 0 11.882812-5.320313 11.882812-11.882813v-16.125c0-6.5625-5.316406-11.882812-11.882812-11.882812zm0 0" fill="#994334"/><path d="m65 299.894531v-16.125c0-6.566406 5.320312-11.882812 11.882812-11.882812h-31.191406c-6.5625 0-11.878906 5.316406-11.878906 11.882812v16.125c0 6.5625 5.316406 11.882813 11.878906 11.882813h31.191406c-6.5625 0-11.882812-5.320313-11.882812-11.882813zm0 0" fill="#82362b"/><path d="m325.605469 257.3125h-291.617188c-.046875 0-.097656-.007812-.144531-.007812-.011719.210937-.03125.414062-.03125.625 0 7.695312 6.148438 13.957031 15.027344 13.957031h136.296875c2.039062 0 4.035156.578125 5.757812 1.671875l40.421875 25.691406c2.375 1.511719 5.675782 2.375 9.058594 2.375s6.6875-.863281 9.0625-2.375l40.421875-25.691406c1.722656-1.09375 3.71875-1.671875 5.757813-1.671875h15.144531c8.878906 0 15.027343-6.261719 15.027343-13.957031 0-.210938-.023437-.414063-.03125-.625-.050781 0-.101562.007812-.152343.007812zm0 0" fill="#ffd00d"/><path d="m57.78125 257.929688c0-.207032.023438-.410157.03125-.617188h-23.824219c-.046875 0-.097656-.007812-.144531-.007812-.011719.210937-.03125.414062-.03125.625 0 7.695312 6.148438 13.957031 15.027344 13.957031h23.96875c-8.875 0-15.027344-6.261719-15.027344-13.957031zm0 0" fill="#ffaf10"/><path d="m33.988281 258.3125c-2.414062 0-4.714843-1.019531-6.339843-2.804688-1.625-1.785156-2.421876-4.175781-2.191407-6.578124 3.4375-36.160157 19.976563-69.8125 46.566407-94.765626 27.816406-26.101562 64.15625-40.480468 102.324218-40.480468h10.898438c38.167968 0 74.507812 14.378906 102.324218 40.480468 26.589844 24.953126 43.128907 58.609376 46.570313 94.765626.226563 2.402343-.570313 4.792968-2.191406 6.578124-1.625 1.789063-3.929688 2.804688-6.34375 2.804688zm0 0" fill="#ffaf10"/><path d="m57.039062 248.929688c3.4375-36.160157 19.976563-69.8125 46.566407-94.765626 25.289062-23.734374 57.628906-37.769531 91.984375-40.125-3.429688-.234374-6.878906-.355468-10.34375-.355468h-10.894532c-38.167968 0-74.511718 14.378906-102.328124 40.480468-26.589844 24.953126-43.125 58.605469-46.566407 94.765626-.226562 2.402343.566407 4.792968 2.191407 6.578124 1.625 1.789063 3.929687 2.804688 6.34375 2.804688h31.582031c-2.414063 0-4.71875-1.019531-6.34375-2.804688-1.625-1.785156-2.421875-4.175781-2.191407-6.578124zm0 0" fill="#ff9518"/><path d="m94.042969 193.105469c0-3.238281-3.308594-5.863281-7.394531-5.863281-4.082032 0-7.390626 2.625-7.390626 5.863281 0 3.242187 3.308594 5.867187 7.390626 5.867187 4.085937 0 7.394531-2.625 7.394531-5.867187zm0 0" fill="#ffdd8d"/><path d="m123.613281 164.421875c0-3.242187-3.308593-5.867187-7.390625-5.867187-4.085937 0-7.394531 2.625-7.394531 5.867187 0 3.238281 3.308594 5.863281 7.394531 5.863281 4.082032 0 7.390625-2.625 7.390625-5.863281zm0 0" fill="#fff"/><path d="m156.144531 193.105469c0-3.238281-3.3125-5.863281-7.394531-5.863281-4.085938 0-7.394531 2.625-7.394531 5.863281 0 3.242187 3.308593 5.867187 7.394531 5.867187 4.082031 0 7.394531-2.625 7.394531-5.867187zm0 0" fill="#fff"/><g fill="#ffdd8d"><path d="m185.714844 164.421875c0-3.242187-3.3125-5.867187-7.394532-5.867187-4.082031 0-7.394531 2.625-7.394531 5.867187 0 3.238281 3.3125 5.863281 7.394531 5.863281 4.082032 0 7.394532-2.625 7.394532-5.863281zm0 0"/><path d="m218.242188 193.105469c0-3.238281-3.3125-5.863281-7.394532-5.863281-4.082031 0-7.394531 2.625-7.394531 5.863281 0 3.242187 3.3125 5.867187 7.394531 5.867187 4.082032 0 7.394532-2.625 7.394532-5.867187zm0 0"/><path d="m156.144531 139.558594c0-3.238282-3.3125-5.863282-7.394531-5.863282-4.085938 0-7.394531 2.625-7.394531 5.863282 0 3.242187 3.308593 5.867187 7.394531 5.867187 4.082031 0 7.394531-2.625 7.394531-5.867187zm0 0"/><path d="m218.242188 139.558594c0-3.238282-3.3125-5.863282-7.394532-5.863282-4.082031 0-7.394531 2.625-7.394531 5.863282 0 3.242187 3.3125 5.867187 7.394531 5.867187 4.082032 0 7.394532-2.625 7.394532-5.867187zm0 0"/></g><path d="m247.8125 164.421875c0-3.242187-3.3125-5.867187-7.394531-5.867187s-7.394531 2.625-7.394531 5.867187c0 3.238281 3.3125 5.863281 7.394531 5.863281s7.394531-2.625 7.394531-5.863281zm0 0" fill="#fff"/><path d="m280.339844 193.105469c0-3.238281-3.308594-5.863281-7.394532-5.863281-4.082031 0-7.394531 2.625-7.394531 5.863281 0 3.242187 3.3125 5.867187 7.394531 5.867187 4.085938 0 7.394532-2.625 7.394532-5.867187zm0 0" fill="#fff"/><path d="m29.683594 383.945312h302.015625c1.609375-5.1875 2.476562-10.695312 2.476562-16.40625v-14.296874c0-4.726563-3.828125-8.554688-8.554687-8.554688h-291.648438c-4.722656 0-8.554687 3.828125-8.554687 8.554688v14.296874c0 3.453126.332031 6.824219.9375 10.101563 1.078125 2.121094 2.195312 4.21875 3.328125 6.304687zm0 0" fill="#ffaf10"/><path d="m57 367.542969v-14.300781c0-4.726563 3.828125-8.554688 8.554688-8.554688h-31.582032c-4.722656 0-8.554687 3.828125-8.554687 8.554688v14.300781c0 3.449219.332031 6.820312.9375 10.097656 1.078125 2.121094 2.195312 4.21875 3.328125 6.304687h31.582031c-1.136719-2.085937-2.25-4.183593-3.328125-6.304687-.605469-3.277344-.9375-6.648437-.9375-10.097656zm0 0" fill="#ff9518"/><path d="m349.964844 427.945312 20.128906-38.511718c.71875-1.375.664062-3.023438-.140625-4.351563-.800781-1.328125-2.238281-2.140625-3.792969-2.140625h-337.03125c8.707032 16.179688 19.1875 31.261719 31.167969 45h289.667969zm0 0" fill="#ffc987"/><path d="m61.175781 385.082031c.800781-1.324219 2.238281-2.136719 3.792969-2.136719h-35.839844c8.707032 16.175782 19.1875 31.257813 31.167969 45h20.863281l-20.125-38.511718c-.71875-1.375-.664062-3.023438.140625-4.351563zm0 0" fill="#ff9f60"/><path d="m59.414062 426.945312c44.929688 52.082032 111.402344 85.054688 185.585938 85.054688 74.179688 0 140.65625-32.972656 185.585938-85.054688zm0 0" fill="#db722c"/></svg>